<svg width="18" height="12" viewBox="0 0 18 12" fill="none" xmlns="http://www.w3.org/2000/svg">
<path d="M13.8882 4.76758C14.8022 4.81445 15.5757 5.17188 16.2085 5.83984C16.8413 6.50781 17.1577 7.31055 17.1577 8.24805C17.1577 9.20898 16.812 10.0352 16.1206 10.7266C15.4292 11.418 14.603 11.7637 13.6421 11.7637H4.50146C3.32959 11.7637 2.3335 11.3535 1.51318 10.5332C0.692871 9.71289 0.282715 8.7168 0.282715 7.54492C0.282715 6.4668 0.645996 5.5293 1.37256 4.73242C2.09912 3.93555 2.98975 3.47852 4.04443 3.36133C4.48975 2.49414 5.12842 1.80273 5.96045 1.28711C6.79248 0.771484 7.7124 0.513672 8.72021 0.513672C9.98584 0.513672 11.0991 0.917969 12.0601 1.72656C13.021 2.53516 13.6304 3.54883 13.8882 4.76758ZM7.59521 6.56055H5.20459L8.72021 10.0762L12.2358 6.56055H9.84521V3.88867H7.59521V6.56055Z" fill="white" fill-opacity="0.9"/>
</svg>
