<svg width="9" height="9" viewBox="0 0 9 9" fill="none" xmlns="http://www.w3.org/2000/svg">
<g clip-path="url(#clip0_32_268)">
<path d="M4.20041 1.52556C4.21926 1.27924 4.58039 1.27924 4.59924 1.52556L4.7136 3.01985C4.72802 3.20819 4.97143 3.27341 5.07809 3.11751L5.92427 1.8806C6.06375 1.67671 6.3765 1.85727 6.26967 2.08001L5.62156 3.43128C5.53987 3.6016 5.71807 3.7798 5.88839 3.69811L7.23966 3.05C7.4624 2.94317 7.64297 3.25592 7.43907 3.3954L6.20216 4.24158C6.04626 4.34824 6.11148 4.59166 6.29982 4.60607L7.79411 4.72043C8.04043 4.73928 8.04043 5.10041 7.79411 5.11926L6.29983 5.23362C6.11148 5.24804 6.04626 5.49145 6.20216 5.59811L7.43907 6.44429C7.64297 6.58377 7.4624 6.89652 7.23966 6.78969L5.88839 6.14158C5.71807 6.05989 5.53987 6.23809 5.62156 6.40841L6.26967 7.75968C6.3765 7.98242 6.06375 8.16299 5.92427 7.95909L5.07809 6.72218C4.97143 6.56628 4.72802 6.6315 4.7136 6.81984L4.59924 8.31413C4.58039 8.56045 4.21926 8.56045 4.20041 8.31413L4.08605 6.81985C4.07164 6.6315 3.82822 6.56628 3.72156 6.72218L2.87538 7.95909C2.7359 8.16299 2.42315 7.98242 2.52998 7.75968L3.17809 6.40841C3.25978 6.23809 3.08158 6.05989 2.91127 6.14158L1.55999 6.78969C1.33725 6.89652 1.15669 6.58377 1.36058 6.44429L2.59749 5.59811C2.75339 5.49145 2.68817 5.24804 2.49983 5.23362L1.00554 5.11926C0.759221 5.10041 0.759221 4.73928 1.00554 4.72043L2.49983 4.60607C2.68817 4.59166 2.75339 4.34824 2.59749 4.24158L1.36058 3.3954C1.15669 3.25592 1.33725 2.94317 1.55999 3.05L2.91126 3.69811C3.08158 3.7798 3.25978 3.6016 3.17809 3.43129L2.52998 2.08001C2.42315 1.85727 2.7359 1.67671 2.87538 1.8806L3.72156 3.11751C3.82822 3.27341 4.07164 3.20819 4.08605 3.01985L4.20041 1.52556Z" fill="#BCBCBC" fill-opacity="0.6"/>
</g>
<defs>
<clipPath id="clip0_32_268">
<rect width="8" height="8" fill="white" transform="translate(0.399902 0.919922)"/>
</clipPath>
</defs>
</svg>
